# xmcd
#
# Track frame offsets:
#	150
#	12282
#	23636
#	37314
#	51417
#	64361
#	77356
#	91687
#	105159
#	118590
#	133112
#	145931
#	159509
#	173152
#	184094
#	195574
#	208042
#	222134
#	236599
#	249876
#	264074
#	275657
#	288650
#	300026
#	314269
#
# Disc length: 4365 seconds
# Revision: 1
# Processed by: cddbd v1.5.2PL0 Copyright (c) Steve Scherf et al.
# Submitted via: dBpowerAMP V12.0
#
DISCID=54110b19
DTITLE=Various Artist - Let Me Tell You About The Blues - West Coast
DYEAR=1947
DGENRE=Blues
TTITLE0=Jimmy Liggins - Cadillac Boogie
TTITLE1=Edgar Hayes - Fat Meat 'n' Greens
TTITLE2=King Perry Orchestra - Let 'Em Roll Blues
TTITLE3=Vivianne Green - Bowlegged Boogie
TTITLE4=Big Jay McNeely - The Deacon's Hop
TTITLE5=Wild Bill Moore - Rock And Roll
TTITLE6=Floyd Dixon - Drafting Blues
TTITLE7=Little Willie Littlefield - It's Midnight (No Place To Go)
TTITLE8=Johnny Moore's Three Blazers - Walkin' Blues
TTITLE9=Ivory Joe Hunter - I Almost Lost My Mind
TTITLE10=Johnny Otis and Little Esther and The Robins - Double Crossing Blues
TTITLE11=Roy Hawkins - Why Do Everything Happen To Me
TTITLE12=Jimmy McCracklin - Beer Drinkin' Woman
TTITLE13=Calvin Boze and His All-Stars - Safronia B
TTITLE14=King Perry and His Pied Pipers - Everything's Gonna Be Alright
TTITLE15=T-Bone Walker - Glamor Girl
TTITLE16=Ray Charles - Late In The Evening Blues
TTITLE17=Helen Jumes - Million Dollar Secret
TTITLE18=Percy Mayfield - Please Send Me Someone To Love
TTITLE19=Charles Brown - Black Night
TTITLE20=Lowell Fulson - Every Day I Have The Blues
TTITLE21=Roy Hawkins - The Thrill Is Gone
TTITLE22=Peppermint Harris - I Got Loaded
TTITLE23=Jimmy Nelson - T-99 Blues
TTITLE24=Fluffy Hunter - The Walkin' Blues
EXTD=
EXTT0=
EXTT1=
EXTT2=
EXTT3=
EXTT4=
EXTT5=
EXTT6=
EXTT7=
EXTT8=
EXTT9=
EXTT10=
EXTT11=
EXTT12=
EXTT13=
EXTT14=
EXTT15=
EXTT16=
EXTT17=
EXTT18=
EXTT19=
EXTT20=
EXTT21=
EXTT22=
EXTT23=
EXTT24=
PLAYORDER=
